<svg xmlns="http://www.w3.org/2000/svg" viewBox="0 0 512 512" width="512" height="512">
  <defs>
    <linearGradient id="bgGrad" x1="0%" y1="0%" x2="100%" y2="100%">
      <stop offset="0%" stop-color="#2DA3FF" />
      <stop offset="100%" stop-color="#0066FF" />
    </linearGradient>
    <radialGradient id="starGrad" cx="50%" cy="50%" r="50%">
      <stop offset="0%" stop-color="#ffffff" />
      <stop offset="100%" stop-color="#e6f2ff" />
    </radialGradient>
  </defs>
  
  <rect x="64" y="64" width="384" height="384" rx="90" fill="url(#bgGrad)" />

  <path d="M 256 175 
           Q 256 235 200 235 
           Q 256 235 256 295 
           Q 256 235 312 235 
           Q 256 235 256 175 Z" 
        fill="url(#starGrad)" />

  <g fill="none" stroke="#ffffff" stroke-width="17" stroke-linecap="round" stroke-linejoin="round">
    <path d="M 85 160 
             C 125 155, 155 180, 185 235 
             C 210 280, 240 320, 256 340 
             C 272 320, 302 280, 327 235 
             C 357 180, 387 155, 427 160" />
    
    <path d="M 85 200 
             C 125 195, 155 220, 185 275 
             C 210 320, 240 360, 256 380 
             C 272 360, 302 320, 327 275 
             C 357 220, 387 195, 427 200" />
             
    <path d="M 85 240 
             C 125 235, 155 260, 185 315 
             C 210 360, 240 400, 256 420 
             C 272 400, 302 360, 327 315 
             C 357 260, 387 235, 427 240" />
  </g>
</svg>

